<svg xmlns="http://www.w3.org/2000/svg" viewBox="0 0 450 394"><path d="M430.32 88.4685L234.305 5.84809C231.226 4.52617 227.879 3.8652 224.397 3.8652C220.916 3.8652 217.703 4.52617 214.49 5.84809L19.6795 87.9397C10.4411 91.9055 4.41602 100.762 4.41602 110.809V275.918C4.41602 283.981 8.29883 291.516 14.9933 296.143L141.386 385.241C145.67 388.281 150.758 389.868 155.98 389.868C161.871 389.868 167.494 387.885 172.046 384.184L223.862 341.75L278.221 384.58C282.64 388.149 288.263 390 293.886 390C299.108 390 304.196 388.414 308.48 385.373L435.007 296.011C441.567 291.384 445.584 283.717 445.584 275.786V111.338C445.584 101.423 439.693 92.4343 430.32 88.4685ZM227.611 127.201C226.674 126.672 225.469 126.408 224.397 126.408C223.326 126.408 222.255 126.672 221.184 127.201L156.917 161.703L53.4198 105.918L224.397 33.3442L396.178 106.315L292.28 162.1L227.611 127.201ZM277.418 189.067V347.302L228.012 307.38C226.807 306.454 225.335 305.925 223.862 305.925C222.389 305.925 220.782 306.454 219.577 307.512L173.118 345.715V188.142L224.397 160.514L277.418 189.067ZM141.519 347.17L34.1396 274.596V131.299L141.519 189.067V347.17ZM308.48 188.538L415.86 130.638V274.728L308.48 347.302V188.538V188.538Z"></path></svg>